# xmcd
#
# Track frame offsets: 
#        150
#        14888
#        32039
#        46577
#        59616
#        75844
#        89662
#        104427
#        118047
#        132293
#
# Disc length: 1976 seconds
#
# Revision: 0
# Processed by: cddbd v1.5.2PL0 Copyright (c) Steve Scherf et al.
# Submitted via: ExactAudioCopy v1.0b3
#
DISCID=8107b60a
DTITLE=The Stylistics - You Are Beautiful
DYEAR=1975
DGENRE=Soul
TTITLE0=Funky Weekend
TTITLE1=Jenny
TTITLE2=That Don't Shake Me
TTITLE3=Na-Na Is The Saddest Word
TTITLE4=Michael Or Me
TTITLE5=The Day The Clown Came To Town
TTITLE6=You Are Beautiful
TTITLE7=To Save My Rock 'N' Roll Soul
TTITLE8=If You Are There
TTITLE9=We Just Can't Help It
EXTD=
EXTT0=
EXTT1=
EXTT2=
EXTT3=
EXTT4=
EXTT5=
EXTT6=
EXTT7=
EXTT8=
EXTT9=
PLAYORDER=
